<svg width="35" height="35" viewBox="0 0 35 35" fill="none" xmlns="http://www.w3.org/2000/svg">
<path d="M10.3928 0C9.97208 0 9.63093 0.356125 9.63093 0.795455V5.17045C9.63093 5.60974 9.97208 5.96591 10.3928 5.96591C10.8136 5.96591 11.1547 5.60974 11.1547 5.17045V0.795455C11.1547 0.356125 10.8136 0 10.3928 0ZM25.6309 0C25.2102 0 24.869 0.356125 24.869 0.795455V5.17045C24.869 5.60974 25.2102 5.96591 25.6309 5.96591C26.0517 5.96591 26.3928 5.60974 26.3928 5.17045V0.795455C26.3928 0.356125 26.0517 0 25.6309 0ZM5.0595 3.18182C3.36598 3.18182 2 4.60783 2 6.37604V13.5227H34V6.37604C34 4.60783 32.634 3.18182 30.9405 3.18182H28.6667H27.1547V6.00317C28.0636 6.55601 28.6786 7.5802 28.6786 8.75C28.6786 10.4979 27.3052 11.9318 25.6309 11.9318C23.9569 11.9318 22.5833 10.4979 22.5833 8.75C22.5833 7.5802 23.1984 6.55601 24.1071 6.00317V3.18182H11.9048V5.99077C12.8214 6.54146 13.4405 7.57412 13.4405 8.75C13.4405 10.4979 12.0671 11.9318 10.3928 11.9318C8.71882 11.9318 7.34522 10.4979 7.34522 8.75C7.34522 7.58398 7.95314 6.55729 8.85714 6.00317V3.18182H5.0595ZM10.3928 7.15909C9.5424 7.15909 8.86903 7.86191 8.86903 8.75C8.86903 9.63805 9.5424 10.3409 10.3928 10.3409C11.2434 10.3409 11.9166 9.63805 11.9166 8.75C11.9166 7.86191 11.2434 7.15909 10.3928 7.15909ZM25.6309 7.15909C24.7805 7.15909 24.1071 7.86191 24.1071 8.75C24.1071 9.63805 24.7805 10.3409 25.6309 10.3409C26.4815 10.3409 27.1547 9.63805 27.1547 8.75C27.1547 7.86191 26.4815 7.15909 25.6309 7.15909ZM2 15.1136V31.8058C2 33.574 3.36594 35 5.0595 35H30.9405C32.634 35 34 33.574 34 31.8058V15.1136H2Z" fill="white"/>
</svg>
