<svg width="33" height="36" viewBox="0 0 33 36" fill="none" xmlns="http://www.w3.org/2000/svg">
<path d="M8.9944 0.5C8.57364 0.5 8.2325 0.856125 8.2325 1.29545V5.67045C8.2325 6.10974 8.57364 6.46591 8.9944 6.46591C9.4152 6.46591 9.75631 6.10974 9.75631 5.67045V1.29545C9.75631 0.856125 9.4152 0.5 8.9944 0.5ZM24.2325 0.5C23.8117 0.5 23.4706 0.856125 23.4706 1.29545V5.67045C23.4706 6.10974 23.8117 6.46591 24.2325 6.46591C24.6533 6.46591 24.9944 6.10974 24.9944 5.67045V1.29545C24.9944 0.856125 24.6533 0.5 24.2325 0.5ZM3.66107 3.68182C1.96754 3.68182 0.601562 5.10783 0.601562 6.87604V14.0227H32.6016V6.87604C32.6016 5.10783 31.2355 3.68182 29.5421 3.68182H27.2682H25.7563V6.50317C26.6651 7.05601 27.2801 8.0802 27.2801 9.25C27.2801 10.9979 25.9068 12.4318 24.2325 12.4318C22.5585 12.4318 21.1849 10.9979 21.1849 9.25C21.1849 8.0802 21.8 7.05601 22.7087 6.50317V3.68182H10.5063V6.49077C11.4229 7.04146 12.042 8.07412 12.042 9.25C12.042 10.9979 10.6687 12.4318 8.9944 12.4318C7.32038 12.4318 5.94678 10.9979 5.94678 9.25C5.94678 8.08398 6.55471 7.05729 7.45871 6.50317V3.68182H3.66107ZM8.9944 7.65909C8.14396 7.65909 7.47059 8.36192 7.47059 9.25C7.47059 10.138 8.14396 10.8409 8.9944 10.8409C9.84499 10.8409 10.5182 10.138 10.5182 9.25C10.5182 8.36192 9.84499 7.65909 8.9944 7.65909ZM24.2325 7.65909C23.3821 7.65909 22.7087 8.36192 22.7087 9.25C22.7087 10.138 23.3821 10.8409 24.2325 10.8409C25.0831 10.8409 25.7563 10.138 25.7563 9.25C25.7563 8.36192 25.0831 7.65909 24.2325 7.65909ZM0.601562 15.6136V32.3058C0.601562 34.074 1.96751 35.5 3.66107 35.5H29.5421C31.2355 35.5 32.6016 34.074 32.6016 32.3058V15.6136H0.601562Z" fill="white"/>
</svg>
