<svg width="12" height="12" viewBox="0 0 12 12" fill="none" xmlns="http://www.w3.org/2000/svg">
<g clip-path="url(#clip0)">
<path d="M4.95286 3.78743C5.30654 3.58322 9.63421 1.27731 10.776 3.25493C11.9178 5.23255 7.75695 7.82746 7.40327 8.03166C7.04958 8.23586 2.4411 10.8722 1.22645 8.76836C0.0118047 6.66453 4.59917 3.99163 4.95286 3.78743Z" stroke="#454545"/>
<path d="M3.55078 5.80923C3.55078 5.40082 3.71763 0.5 6.00119 0.5C8.28476 0.5 8.45161 5.40082 8.45161 5.80923C8.45161 6.21763 8.43049 11.5269 6.00119 11.5269C3.5719 11.5269 3.55078 6.21763 3.55078 5.80923Z" stroke="#454545"/>
<path d="M4.59792 8.03352C4.24424 7.82932 0.0834249 5.23441 1.22521 3.25679C2.36699 1.27916 6.69465 3.58508 7.04834 3.78928C7.40202 3.99348 11.9894 6.66639 10.7747 8.77021C9.5601 10.874 4.95161 8.23772 4.59792 8.03352Z" stroke="#454545"/>
<circle cx="5.99757" cy="6.01319" r="0.521005" stroke="#454545"/>
<circle cx="9.87647" cy="2.74757" r="0.521005" stroke="#454545"/>
<circle cx="1.71241" cy="9.28272" r="0.521005" stroke="#454545"/>
</g>
<defs>
<clipPath id="clip0">
<rect width="12" height="12" fill="white"/>
</clipPath>
</defs>
</svg>
