<svg width="36" height="36" viewBox="0 0 36 36" fill="none" xmlns="http://www.w3.org/2000/svg">
<rect x="0.699219" y="0.5" width="35" height="35" rx="2" fill="white"/>
<path d="M24.9314 16.2145H19.9671V11.2503C19.9671 10.286 19.1814 9.48244 18.1992 9.50029C17.2349 9.50029 16.4492 10.286 16.4314 11.2681V16.2323H11.4671C10.5028 16.2323 9.69922 17.018 9.69922 18.0001C9.69922 18.4823 9.89565 18.9287 10.2171 19.2501C10.5385 19.5715 10.9671 19.768 11.4671 19.768H16.4314V24.7322C16.4314 25.2143 16.6278 25.6607 16.9492 25.9822C17.2706 26.3036 17.6992 26.5 18.1992 26.5C19.1635 26.5 19.9492 25.7143 19.9671 24.7322V19.768H24.9314C25.8956 19.768 26.6992 18.9823 26.6992 18.0001C26.6814 17.018 25.8956 16.2323 24.9314 16.2145Z" fill="#716EFF"/>
</svg>
