<svg width="35" height="35" viewBox="0 0 35 35" fill="none" xmlns="http://www.w3.org/2000/svg">
<rect width="35" height="35" rx="2" fill="white"/>
<path d="M24.2321 15.7145H19.2679V10.7503C19.2679 9.78599 18.4821 8.98244 17.5 9.00029C16.5357 9.00029 15.75 9.78599 15.7321 10.7681V15.7323H10.7679C9.80357 15.7323 9 16.518 9 17.5001C9 17.9823 9.19643 18.4287 9.51786 18.7501C9.83929 19.0715 10.2679 19.268 10.7679 19.268H15.7321V24.2322C15.7321 24.7143 15.9286 25.1607 16.25 25.4822C16.5714 25.8036 17 26 17.5 26C18.4643 26 19.25 25.2143 19.2679 24.2322V19.268H24.2321C25.1964 19.268 26 18.4823 26 17.5001C25.9821 16.518 25.1964 15.7323 24.2321 15.7145Z" fill="#716EFF"/>
</svg>
