<svg width="12" height="12" viewBox="0 0 12 12" fill="none" xmlns="http://www.w3.org/2000/svg">
<circle cx="6" cy="6" r="5.5" stroke="#454545"/>
<path d="M5.97266 5.38192L8.05201 3.30257C8.20543 3.14914 8.45417 3.14914 8.60759 3.30257C8.76101 3.45599 8.76101 3.70473 8.60759 3.85815L6.52824 5.9375L8.60759 8.01685C8.76101 8.17027 8.76101 8.41901 8.60759 8.57243C8.45417 8.72585 8.20543 8.72585 8.05201 8.57243L5.97266 6.49308L3.89331 8.57243C3.73988 8.72585 3.49114 8.72585 3.33772 8.57243C3.1843 8.41901 3.1843 8.17027 3.33772 8.01685L5.41707 5.9375L3.33772 3.85815C3.1843 3.70473 3.1843 3.45599 3.33772 3.30257C3.49114 3.14914 3.73988 3.14914 3.89331 3.30257L5.97266 5.38192Z" fill="#454545"/>
</svg>
