<svg width="35" height="35" viewBox="0 0 35 35" fill="none" xmlns="http://www.w3.org/2000/svg">
<g clip-path="url(#clip0)">
<path fill-rule="evenodd" clip-rule="evenodd" d="M0.775634 10.3477H6.81585C7.24272 10.3477 7.59148 10.695 7.59148 11.1202V32.4048C7.59148 32.83 7.24272 33.1774 6.81585 33.1774H0.775634C0.348759 33.1774 0 32.83 0 32.4048V11.1202C0 10.695 0.348758 10.3477 0.775634 10.3477V10.3477Z" fill="white"/>
<path fill-rule="evenodd" clip-rule="evenodd" d="M10.0022 19.7578H16.0424C16.4693 19.7578 16.818 20.1052 16.818 20.5304V32.4155C16.818 32.8407 16.4693 33.1881 16.0424 33.1881H10.0022C9.57532 33.1881 9.22656 32.8407 9.22656 32.4155V20.5304C9.22656 20.1052 9.57532 19.7578 10.0022 19.7578V19.7578Z" fill="white"/>
<path fill-rule="evenodd" clip-rule="evenodd" d="M19.2209 4H25.2612C25.688 4 26.0368 4.34738 26.0368 4.77257V32.3952C26.0368 32.8204 25.688 33.1677 25.2612 33.1677H19.2209C18.7941 33.1677 18.4453 32.8204 18.4453 32.3952V4.77257C18.4453 4.34738 18.7941 4 19.2209 4V4Z" fill="white"/>
<path fill-rule="evenodd" clip-rule="evenodd" d="M28.4436 14.7227H34.4838C34.9107 14.7227 35.2595 15.0707 35.2595 15.4952V32.4029C35.2595 32.8275 34.9101 33.1755 34.4838 33.1755H28.4436C28.0173 33.1755 27.668 32.8281 27.668 32.4029V15.4952C27.668 15.07 28.0167 14.7227 28.4436 14.7227V14.7227Z" fill="white"/>
</g>
<defs>
<clipPath id="clip0">
<rect width="35" height="35" fill="white"/>
</clipPath>
</defs>
</svg>
