<svg width="42" height="35" viewBox="0 0 42 35" fill="none" xmlns="http://www.w3.org/2000/svg">
<path fill-rule="evenodd" clip-rule="evenodd" d="M0.924018 7.55859H8.11977C8.62831 7.55859 9.04379 7.97243 9.04379 8.47896V33.8355C9.04379 34.342 8.62831 34.7558 8.11977 34.7558H0.924018C0.415479 34.7558 0 34.342 0 33.8355V8.47896C0 7.97243 0.415478 7.55859 0.924018 7.55859Z" fill="white"/>
<path fill-rule="evenodd" clip-rule="evenodd" d="M11.9162 18.7695H19.112C19.6205 18.7695 20.036 19.1834 20.036 19.6899V33.8487C20.036 34.3552 19.6205 34.7691 19.112 34.7691H11.9162C11.4077 34.7691 10.9922 34.3552 10.9922 33.8487V19.6899C10.9922 19.1834 11.4077 18.7695 11.9162 18.7695Z" fill="white"/>
<path fill-rule="evenodd" clip-rule="evenodd" d="M22.8967 0H30.0924C30.601 0 31.0164 0.413837 31.0164 0.92037V33.8274C31.0164 34.3339 30.601 34.7477 30.0924 34.7477H22.8967C22.3881 34.7477 21.9727 34.3339 21.9727 33.8274V0.92037C21.9727 0.413839 22.3881 0 22.8967 0V0Z" fill="white"/>
<path fill-rule="evenodd" clip-rule="evenodd" d="M33.8811 12.7734H41.0768C41.5853 12.7734 42.0008 13.188 42.0008 13.6938V33.8361C42.0008 34.3419 41.5846 34.7564 41.0768 34.7564H33.8811C33.3732 34.7564 32.957 34.3426 32.957 33.8361V13.6938C32.957 13.1873 33.3725 12.7734 33.8811 12.7734Z" fill="white"/>
</svg>
