<svg width="12" height="12" viewBox="0 0 12 12" fill="none" xmlns="http://www.w3.org/2000/svg">
<g clip-path="url(#clip0)">
<path d="M1.8799 4.25606H6.77112C6.93458 4.25606 7.0729 4.10517 7.0729 3.92686C7.0729 3.74854 6.93458 3.59766 6.77112 3.59766H1.8799C1.71644 3.59766 1.57812 3.74854 1.57812 3.92686C1.57813 4.10517 1.71644 4.25606 1.8799 4.25606Z" fill="#454545"/>
<path d="M1.8799 6.20137H5.35028C5.51374 6.20137 5.65205 6.05049 5.65205 5.87217C5.65205 5.69385 5.51374 5.54297 5.35028 5.54297H1.8799C1.71644 5.54297 1.57812 5.69385 1.57812 5.87217C1.57813 6.0642 1.71644 6.20137 1.8799 6.20137Z" fill="#454545"/>
<path d="M4.08032 7.5H1.8799C1.71644 7.5 1.57812 7.65088 1.57812 7.8292C1.57812 8.00752 1.71644 8.1584 1.8799 8.1584H4.08032C4.24378 8.1584 4.38209 8.00752 4.38209 7.8292C4.38209 7.65088 4.24378 7.5 4.08032 7.5Z" fill="#454545"/>
<path d="M3.61509 9.46484H1.8799C1.71644 9.46484 1.57812 9.61573 1.57812 9.79404C1.57812 9.97236 1.71644 10.1232 1.8799 10.1232H3.61509C3.77855 10.1232 3.91686 9.97236 3.91686 9.79404C3.91686 9.61573 3.77855 9.46484 3.61509 9.46484Z" fill="#454545"/>
<path d="M11.8884 3.31944C11.7752 3.09997 11.6369 2.90794 11.4609 2.71591C11.2848 2.52387 11.0962 2.35927 10.9076 2.24954C10.6436 2.08494 10.3167 2.13981 10.1029 2.37299L8.61919 3.96413V1.17964C8.61919 1.00132 8.48087 0.850436 8.31741 0.850436H7.0726V0.329201C7.0726 0.150884 6.93429 0 6.77083 0C6.60737 0 6.46906 0.150884 6.46906 0.329201V0.850436H5.438V0.329201C5.438 0.150884 5.29969 0 5.13623 0C4.97277 0 4.83446 0.150884 4.83446 0.329201V0.850436H3.8034V0.329201C3.8034 0.150884 3.66509 0 3.50163 0C3.33817 0 3.19986 0.150884 3.19986 0.329201V0.850436H2.1688V0.329201C2.1688 0.150884 2.03049 0 1.86703 0C1.70357 0 1.56526 0.150884 1.56526 0.329201V0.850436H0.333022C0.169562 0.850436 0.03125 1.00132 0.03125 1.17964V11.6729C0.03125 11.8512 0.169562 12.0021 0.333022 12.0021H8.32999C8.49345 12.0021 8.63176 11.8512 8.63176 11.6729V7.65392L11.7878 4.21103C11.989 3.97784 12.0393 3.60749 11.8884 3.31944ZM5.95353 9.12161C5.90324 9.05302 5.85294 8.98444 5.79007 8.91586C5.7272 8.84727 5.66433 8.79241 5.58889 8.72382L5.75235 8.134C5.7775 8.03799 5.82779 7.95569 5.89066 7.8871C6.05412 7.98312 6.21758 8.12029 6.36847 8.27117C6.51935 8.43577 6.64509 8.61409 6.72054 8.79241C6.65767 8.86099 6.58222 8.91586 6.49421 8.94329L5.95353 9.12161ZM7.16062 8.32604C7.06003 8.14772 6.93429 7.98312 6.7834 7.81852C6.63252 7.65392 6.48163 7.51675 6.31817 7.40702L9.73826 3.67608C9.90172 3.77209 10.0652 3.90926 10.2161 4.07386C10.3669 4.23846 10.4927 4.41678 10.5807 4.5951L7.16062 8.32604ZM8.02821 11.3574H0.634795V1.50884H1.57783V2.03007C1.57783 2.20839 1.71615 2.35927 1.87961 2.35927C2.04307 2.35927 2.18138 2.20839 2.18138 2.03007V1.50884H3.21243V2.03007C3.21243 2.20839 3.35074 2.35927 3.5142 2.35927C3.67766 2.35927 3.81598 2.20839 3.81598 2.03007V1.50884H4.84703V2.03007C4.84703 2.20839 4.98534 2.35927 5.1488 2.35927C5.31226 2.35927 5.45058 2.20839 5.45058 2.03007V1.50884H6.48163V2.03007C6.48163 2.20839 6.61994 2.35927 6.7834 2.35927C6.94686 2.35927 7.08518 2.20839 7.08518 2.03007V1.50884H8.02821V4.62253L5.47572 7.3933C5.33741 7.54419 5.23682 7.73622 5.17395 7.94197L4.68357 9.69771C4.64585 9.80744 4.68357 9.94461 4.75902 10.0269C4.82188 10.0955 4.89733 10.1229 4.97277 10.1229C4.99792 10.1229 5.03564 10.1229 5.06079 10.1092L6.67024 9.57426C6.85885 9.50568 7.03488 9.39594 7.17319 9.24506L8.02821 8.31232V11.3574ZM11.3477 3.74466L11.0082 4.11501C10.9076 3.93669 10.7819 3.77209 10.631 3.60749C10.4801 3.44289 10.3292 3.30573 10.1658 3.19599L10.5053 2.82564C10.5178 2.81192 10.543 2.79821 10.5556 2.79821C10.5681 2.79821 10.5807 2.79821 10.5933 2.81192C10.7442 2.90794 10.8825 3.03139 11.0208 3.18228C11.1591 3.33316 11.2723 3.49776 11.3477 3.64864C11.3854 3.67608 11.3729 3.71723 11.3477 3.74466Z" fill="#454545"/>
</g>
<defs>
<clipPath id="clip0">
<rect width="12" height="12" fill="white"/>
</clipPath>
</defs>
</svg>
