<svg width="12" height="12" viewBox="0 0 12 12" fill="none" xmlns="http://www.w3.org/2000/svg">
<path d="M6.0042 12C8.96224 12 11.3683 9.59399 11.3683 6.63595C11.3683 5.10842 10.7231 3.73126 9.6952 2.75382L10.3268 1.9966C10.4985 1.79093 10.4708 1.48484 10.2652 1.31312C10.058 1.1414 9.75292 1.17002 9.58217 1.37473L8.93604 2.14941C8.21957 1.68033 7.38668 1.37812 6.48928 1.29711V0.970167H6.85261C7.12086 0.970167 7.33769 0.75285 7.33769 0.485084C7.33769 0.217318 7.12086 0 6.85261 0H5.15578C4.88753 0 4.6707 0.217318 4.6707 0.485084C4.6707 0.75285 4.88753 0.970167 5.15578 0.970167H5.51911V1.29711C4.62171 1.37812 3.78882 1.68081 3.07283 2.14989L2.4267 1.37521C2.25547 1.17002 1.95084 1.14189 1.74371 1.31312C1.53803 1.48484 1.5099 1.79093 1.6821 1.9966L2.31368 2.75382C1.28579 3.73175 0.640625 5.10842 0.640625 6.63595C0.64014 9.59399 3.04616 12 6.0042 12ZM6.0042 2.24254C8.4267 2.24254 10.3981 4.21344 10.3981 6.63643C10.3981 9.05942 8.4267 11.0298 6.0042 11.0298C3.58169 11.0298 1.61031 9.05894 1.61031 6.63595C1.61031 4.21295 3.58169 2.24254 6.0042 2.24254Z" fill="#454545"/>
<path d="M7.22266 8.53962C7.31725 8.63421 7.44143 8.68175 7.56561 8.68175C7.6898 8.68175 7.81398 8.63421 7.90857 8.53962C8.09824 8.35043 8.09824 8.04337 7.90857 7.85371L6.4897 6.43435V4.29368C6.4897 4.02591 6.27287 3.80859 6.00461 3.80859C5.73636 3.80859 5.51953 4.02591 5.51953 4.29368V6.63518C5.51953 6.76372 5.57047 6.88742 5.66166 6.97813L7.22266 8.53962Z" fill="#454545"/>
</svg>
