<svg width="35" height="35" viewBox="0 0 35 35" fill="none" xmlns="http://www.w3.org/2000/svg">
<circle cx="17.5" cy="17.5" r="17.5" fill="#716EFF"/>
<path d="M25.6909 9.55612C25.4252 9.59443 25.1802 9.7213 24.9956 9.9162C21.0173 13.903 18.0398 17.193 14.243 21.0413L9.92208 17.3909C9.80232 17.2891 9.66366 17.212 9.51403 17.1639C9.36441 17.1159 9.20678 17.0979 9.05017 17.1109C8.89356 17.1239 8.74106 17.1677 8.60142 17.2397C8.46177 17.3118 8.33773 17.4108 8.23641 17.5309C8.13508 17.651 8.05846 17.7899 8.01095 17.9397C7.96344 18.0895 7.94597 18.2472 7.95954 18.4038C7.9731 18.5603 8.01745 18.7127 8.09002 18.8521C8.16259 18.9915 8.26197 19.1151 8.38245 19.216L13.5477 23.5866C13.7769 23.7791 14.0702 23.8784 14.3693 23.8646C14.6683 23.8508 14.9512 23.7249 15.1618 23.5121C19.4245 19.2402 22.4707 15.815 26.6842 11.5924C26.8645 11.4174 26.9848 11.19 27.0281 10.9425C27.0714 10.695 27.0355 10.4402 26.9253 10.2144C26.8152 9.98858 26.6365 9.80335 26.4148 9.68514C26.1931 9.56692 25.9398 9.52176 25.6909 9.55612Z" fill="white"/>
</svg>
