<svg width="78" height="78" viewBox="0 0 78 78" fill="none" xmlns="http://www.w3.org/2000/svg">
<circle cx="39" cy="39" r="39" fill="#5FCF65"/>
<path d="M57.2481 21.3023C56.656 21.3877 56.11 21.6704 55.6986 22.1048C46.8328 30.9897 40.1972 38.3216 31.7357 46.8978L22.1063 38.7626C21.8394 38.5358 21.5303 38.3639 21.1969 38.2569C20.8635 38.1498 20.5122 38.1096 20.1631 38.1386C19.8141 38.1676 19.4743 38.2652 19.1631 38.4258C18.8519 38.5864 18.5754 38.8069 18.3496 39.0746C18.1238 39.3423 17.9531 39.6519 17.8472 39.9858C17.7413 40.3196 17.7024 40.671 17.7326 41.02C17.7628 41.3689 17.8616 41.7084 18.0234 42.019C18.1851 42.3296 18.4066 42.6053 18.6751 42.8301L30.1861 52.5702C30.697 52.9993 31.3507 53.2205 32.0171 53.1897C32.6836 53.1589 33.3141 52.8785 33.7833 52.4042C43.2832 42.884 50.0718 35.2507 59.4618 25.8403C59.8636 25.4503 60.1319 24.9434 60.2284 24.3919C60.3249 23.8404 60.2446 23.2725 59.9992 22.7693C59.7537 22.2661 59.3555 21.8533 58.8615 21.5898C58.3674 21.3264 57.8028 21.2257 57.2481 21.3023Z" fill="white"/>
</svg>
