<svg width="216" height="217" viewBox="0 0 216 217" fill="none" xmlns="http://www.w3.org/2000/svg">
<circle cx="108" cy="108.645" r="108" fill="#F96057"/>
<path d="M108.5 98.4995L145.928 61.0712C148.69 58.3096 153.167 58.3096 155.929 61.0712C158.69 63.8327 158.69 68.3101 155.929 71.0717L118.501 108.5L155.929 145.928C158.69 148.69 158.69 153.167 155.929 155.929C153.167 158.69 148.69 158.69 145.928 155.929L108.5 118.501L71.0717 155.929C68.3101 158.69 63.8327 158.69 61.0712 155.929C58.3096 153.167 58.3096 148.69 61.0712 145.928L98.4995 108.5L61.0712 71.0717C58.3096 68.3101 58.3096 63.8327 61.0712 61.0712C63.8327 58.3096 68.3101 58.3096 71.0717 61.0712L108.5 98.4995Z" fill="white"/>
</svg>
