<svg width="219" height="217" viewBox="0 0 219 217" fill="none" xmlns="http://www.w3.org/2000/svg">
<circle cx="108" cy="108.645" r="108" fill="#716EFF"/>
<path d="M141.781 53.8877L110.243 85.4255L78.7059 53.8882C72.5799 47.7623 62.4834 47.6489 56.3573 54.0019C50.2313 60.1279 50.2312 70.111 56.3571 76.4639L87.8944 108.001L56.3566 139.539C50.2305 145.665 50.117 155.762 56.3564 162.001C59.4194 165.064 63.5034 166.652 67.5873 166.652C71.6713 166.652 75.6419 165.177 78.8184 162.001L110.356 130.463L141.893 162C144.956 165.063 149.04 166.651 153.124 166.651C157.208 166.651 161.179 165.176 164.355 162C170.482 155.874 170.482 145.891 164.356 139.538L132.818 108.001L164.356 76.4629C170.482 70.3369 170.596 60.2403 164.356 54.0009C158.004 47.875 148.02 47.8751 141.781 53.8877Z" fill="white"/>
</svg>
