<svg width="49" height="54" viewBox="0 0 49 54" fill="none" xmlns="http://www.w3.org/2000/svg">
<path d="M24.0699 0C22.1693 0 20.4139 0.90823 18.9421 2.356C17.4704 3.80377 16.2246 5.79453 15.1868 8.208C14.9251 8.81661 14.6777 9.46647 14.4434 10.127C13.7461 9.99762 13.0692 9.88311 12.4037 9.804C11.0958 9.64852 9.85231 9.58462 8.68651 9.633C7.52072 9.6814 6.4428 9.85373 5.44589 10.127C3.45206 10.6735 1.78308 11.7354 0.832761 13.376C-0.117558 15.0166 -0.203958 16.9867 0.318074 18.981C0.840106 20.9753 1.94244 23.0345 3.52057 25.137C3.92021 25.6694 4.35805 26.217 4.81682 26.752C4.35815 27.2869 3.92014 27.8157 3.52057 28.348C1.94244 30.4505 0.840112 32.5097 0.318074 34.504C-0.203964 36.4983 -0.117552 38.4874 0.832761 40.128C1.78308 41.7686 3.45206 42.8305 5.44589 43.377C7.43971 43.9236 9.78782 43.992 12.4037 43.681C13.0691 43.6019 13.7461 43.5064 14.4434 43.377C14.6777 44.037 14.9251 44.6684 15.1868 45.277C16.2246 47.6905 17.4704 49.7002 18.9421 51.148C20.4139 52.5958 22.1693 53.504 24.0699 53.504C25.9706 53.504 27.726 52.5958 29.1978 51.148C30.6695 49.7002 31.9153 47.6905 32.9531 45.277C33.2148 44.6684 33.4622 44.037 33.6965 43.377C34.3938 43.5064 35.0708 43.6019 35.7362 43.681C38.3521 43.992 40.7002 43.9236 42.694 43.377C44.6878 42.8305 46.3568 41.7686 47.3071 40.128C48.2575 38.4874 48.3439 36.4983 47.8218 34.504C47.2998 32.5097 46.1975 30.4505 44.6193 28.348C44.2198 27.8157 43.7817 27.2869 43.3231 26.752C43.7818 26.217 44.2197 25.6694 44.6193 25.137C46.1975 23.0345 47.2998 20.9753 47.8218 18.981C48.3439 16.9867 48.2575 15.0166 47.3071 13.376C46.3568 11.7354 44.6878 10.6735 42.694 10.127C41.6971 9.85373 40.6192 9.68138 39.4534 9.633C38.2876 9.5846 37.0441 9.6485 35.7362 9.804C35.0707 9.88311 34.3938 9.99762 33.6965 10.127C33.4622 9.46647 33.2148 8.81661 32.9531 8.208C31.9153 5.79453 30.6695 3.80377 29.1978 2.356C27.726 0.90823 25.9706 0 24.0699 0ZM24.0699 2.432C25.2014 2.432 26.3267 2.94839 27.4821 4.085C28.6376 5.22161 29.7545 6.95036 30.7037 9.158C30.9082 9.63354 31.1064 10.142 31.2946 10.659C28.9862 11.2457 26.5541 12.0946 24.0699 13.167C21.5858 12.0946 19.1536 11.2457 16.8453 10.659C17.0335 10.142 17.2317 9.63354 17.4362 9.158C18.3854 6.95036 19.5023 5.22161 20.6578 4.085C21.8132 2.94839 22.9385 2.432 24.0699 2.432ZM8.80089 12.084C9.81414 12.0417 10.9214 12.0748 12.1178 12.217C12.6367 12.2787 13.1721 12.367 13.719 12.464C13.0737 14.7513 12.5811 17.267 12.2703 19.95C10.0963 21.5594 8.13929 23.2467 6.47526 24.947C6.12354 24.5297 5.7926 24.1041 5.48401 23.693C4.04048 21.7698 3.0726 19.9197 2.66276 18.354C2.25292 16.7883 2.36393 15.5686 2.92964 14.592C3.49534 13.6154 4.5287 12.8931 6.09401 12.464C6.87667 12.2495 7.78763 12.1263 8.80089 12.084ZM37.7568 12.084C38.3098 12.0633 38.8324 12.0628 39.339 12.084C40.3523 12.1263 41.2632 12.2495 42.0459 12.464C43.6112 12.8931 44.6446 13.6154 45.2103 14.592C45.776 15.5686 45.887 16.7883 45.4771 18.354C45.0673 19.9197 44.0994 21.7698 42.6559 23.693C42.3473 24.1041 42.0164 24.5297 41.6646 24.947C40.0006 23.2467 38.0436 21.5594 35.8696 19.95C35.5588 17.267 35.0662 14.7513 34.4209 12.464C34.9678 12.367 35.5032 12.2787 36.0221 12.217C36.6203 12.1459 37.2038 12.1048 37.7568 12.084ZM16.1018 12.977C17.6865 13.3751 19.3457 13.9198 21.0581 14.573C20.0306 15.0885 19.0004 15.614 17.9699 16.207C16.9454 16.7966 15.972 17.4243 15.0153 18.05C15.305 16.2479 15.6553 14.5419 16.1018 12.977ZM32.0381 12.977C32.4846 14.5419 32.8349 16.2479 33.1246 18.05C32.1679 17.4243 31.1945 16.7966 30.1699 16.207C29.1395 15.614 28.1093 15.0885 27.0818 14.573C28.7942 13.9198 30.4534 13.3751 32.0381 12.977ZM24.0699 15.827C25.6806 16.5593 27.3189 17.3774 28.9499 18.316C30.5779 19.2528 32.1057 20.2583 33.544 21.28C33.7155 23.0454 33.8299 24.8663 33.8299 26.752C33.8299 28.6302 33.7333 30.4671 33.5631 32.224C32.1211 33.2488 30.5827 34.2294 28.9499 35.169C27.3189 36.1076 25.6806 36.9446 24.0699 37.677C22.4593 36.9446 20.821 36.1076 19.1899 35.169C17.5572 34.2294 16.0188 33.2488 14.5768 32.224C14.4066 30.4671 14.3099 28.6302 14.3099 26.752C14.3099 24.8663 14.4244 23.0454 14.5959 21.28C16.0342 20.2583 17.562 19.2528 19.1899 18.316C20.821 17.3774 22.4593 16.5593 24.0699 15.827ZM24.0699 22.496C21.7261 22.496 19.7999 24.4159 19.7999 26.752C19.7999 29.0881 21.7261 31.008 24.0699 31.008C26.4138 31.008 28.3399 29.0881 28.3399 26.752C28.3399 24.4159 26.4138 22.496 24.0699 22.496ZM11.9843 23.256C11.9182 24.4047 11.8699 25.562 11.8699 26.752C11.8699 27.9354 11.9189 29.1062 11.9843 30.248C10.5569 29.093 9.25494 27.9245 8.11464 26.752C9.25494 25.5795 10.5569 24.4109 11.9843 23.256ZM36.1556 23.256C37.583 24.4109 38.885 25.5795 40.0253 26.752C38.885 27.9245 37.583 29.093 36.1556 30.248C36.221 29.1062 36.2699 27.9354 36.2699 26.752C36.2699 25.562 36.2217 24.4047 36.1556 23.256ZM24.0699 24.928C25.0951 24.928 25.8999 25.7303 25.8999 26.752C25.8999 27.7737 25.0951 28.576 24.0699 28.576C23.0448 28.576 22.2399 27.7737 22.2399 26.752C22.2399 25.7303 23.0448 24.928 24.0699 24.928ZM6.47526 28.557C8.1384 30.2564 10.0977 31.9264 12.2703 33.535C12.58 36.2156 13.0556 38.7352 13.6999 41.021C13.1593 41.1166 12.6311 41.207 12.1178 41.268C9.72499 41.5524 7.65932 41.4501 6.09401 41.021C4.5287 40.5919 3.49534 39.8886 2.92964 38.912C2.36393 37.9354 2.25292 36.6967 2.66276 35.131C3.0726 33.5653 4.04048 31.7152 5.48401 29.792C5.7926 29.3809 6.12354 28.9743 6.47526 28.557ZM41.6646 28.557C42.0164 28.9743 42.3473 29.3809 42.6559 29.792C44.0994 31.7152 45.0673 33.5653 45.4771 35.131C45.887 36.6967 45.776 37.9354 45.2103 38.912C44.6446 39.8886 43.6112 40.5919 42.0459 41.021C40.4806 41.4501 38.4149 41.5524 36.0221 41.268C35.5088 41.207 34.9806 41.1166 34.4399 41.021C35.0843 38.7352 35.5599 36.2156 35.8696 33.535C38.0422 31.9264 40.0015 30.2564 41.6646 28.557ZM14.9962 35.454C15.9571 36.0827 16.9406 36.6856 17.9699 37.278C19.0004 37.871 20.0306 38.4154 21.0581 38.931C19.3457 39.5841 17.6865 40.1289 16.1018 40.527C15.6546 38.9614 15.2861 37.2569 14.9962 35.454ZM33.1437 35.454C32.8538 37.2569 32.4853 38.9614 32.0381 40.527C30.4534 40.1289 28.7942 39.5841 27.0818 38.931C28.1093 38.4154 29.1395 37.871 30.1699 37.278C31.1993 36.6856 32.1828 36.0827 33.1437 35.454ZM24.0699 40.337C26.5541 41.4094 28.9862 42.2583 31.2946 42.845C31.1072 43.3591 30.9072 43.8537 30.7037 44.327C29.7545 46.5346 28.6376 48.2634 27.4821 49.4C26.3267 50.5366 25.2014 51.072 24.0699 51.072C22.9385 51.072 21.8132 50.5366 20.6578 49.4C19.5023 48.2634 18.3854 46.5346 17.4362 44.327C17.2327 43.8537 17.0327 43.3591 16.8453 42.845C19.1536 42.2583 21.5858 41.4094 24.0699 40.337Z" fill="white"/>
</svg>